<svg width="25" height="24" viewBox="0 0 25 24" fill="none" xmlns="http://www.w3.org/2000/svg">
<g id="arrow.down.circle" clip-path="url(#clip0_39_61)">
<path id="Vector" d="M12.5708 23.9883C19.1324 23.9883 24.565 18.5439 24.565 11.9941C24.565 5.43264 19.1206 0 12.559 0C6.0093 0 0.57666 5.43264 0.57666 11.9941C0.57666 18.5439 6.02106 23.9883 12.5708 23.9883ZM12.5708 21.9892C7.02057 21.9892 2.58744 17.5444 2.58744 11.9941C2.58744 6.44391 7.00882 1.99903 12.559 1.99903C18.1092 1.99903 22.5659 6.44391 22.5659 11.9941C22.5659 17.5444 18.121 21.9892 12.5708 21.9892Z" fill="#5755FE" style="fill:#5755FE;fill:color(display-p3 0.3412 0.3333 0.9961);fill-opacity:1;"/>
<path id="Vector_2" d="M12.5708 6.00882C12.0652 6.00882 11.6889 6.37335 11.6889 6.89075V12.7703L11.7829 15.2514L10.607 13.8402L9.20772 12.4293C9.04309 12.2645 8.83143 12.1705 8.58449 12.1705C8.10238 12.1705 7.73785 12.5351 7.73785 13.0171C7.73785 13.2641 7.8084 13.4758 7.96127 13.6287L11.8888 17.5326C12.1239 17.7678 12.3238 17.8737 12.5708 17.8737C12.8295 17.8737 13.0412 17.756 13.2646 17.5326L17.1803 13.6287C17.3331 13.4758 17.4272 13.2641 17.4272 13.0171C17.4272 12.5351 17.0509 12.1705 16.5688 12.1705C16.3101 12.1705 16.0984 12.2529 15.9456 12.4293L14.558 13.8402L13.3586 15.2632L13.4528 12.7703V6.89075C13.4528 6.37335 13.0881 6.00882 12.5708 6.00882Z" fill="#5755FE" style="fill:#5755FE;fill:color(display-p3 0.3412 0.3333 0.9961);fill-opacity:1;"/>
</g>
<defs>
<clipPath id="clip0_39_61">
<rect width="24.4234" height="24" fill="white" style="fill:white;fill-opacity:1;" transform="translate(0.57666)"/>
</clipPath>
</defs>
</svg>
