<svg width="62" height="64" viewBox="0 0 62 64" fill="none" xmlns="http://www.w3.org/2000/svg">
<g clip-path="url(#clip0_45_126)">
<path d="M46.4799 7.22622H14.5893C14.693 5.17274 15.9889 3.99211 18.1414 3.99211H42.9278C45.0802 3.99211 46.3762 5.17274 46.4799 7.22622Z" fill="#5755FE" style="fill:#5755FE;fill:color(display-p3 0.3412 0.3333 0.9961);fill-opacity:1;"/>
<path d="M51.6483 14.4436C50.8356 14.3144 49.9738 14.2503 49.0675 14.2503H12.0016C11.0956 14.2503 10.2339 14.3143 9.42151 14.4435C9.69662 12.0161 11.3392 10.6625 14.0229 10.6625H47.0716C49.7554 10.6625 51.3772 12.0161 51.6483 14.4436Z" fill="#5755FE" style="fill:#5755FE;fill:color(display-p3 0.3412 0.3333 0.9961);fill-opacity:1;"/>
<path d="M57.0011 26.1508V52.0995C57.0011 57.3043 54.3484 59.9323 49.0675 59.9323H12.0016C6.72091 59.9323 4.06793 57.3043 4.06793 52.0995V26.1508C4.06793 20.9459 6.72091 18.3182 12.0016 18.3182H49.0675C54.3484 18.3182 57.0011 20.9459 57.0011 26.1508ZM35.5753 38.3799L24.9633 47.7032L20.7691 43.9384C19.7837 43.0541 18.7225 42.5741 17.5855 42.5741C16.5243 42.5741 15.5894 43.0541 14.5788 43.9133L8.64115 49.0928V51.5437C8.64115 54.0702 10.0056 55.3841 12.4311 55.3841H48.6633C51.0385 55.3841 52.4281 54.0702 52.4281 51.5437V47.602L42.6499 38.4052C41.6394 37.4451 40.376 36.9902 39.1126 36.9902C37.7988 36.9902 36.6617 37.3944 35.5753 38.3799ZM17.4844 33.175C17.4844 36.2322 19.9605 38.784 23.0683 38.784C26.1257 38.784 28.6017 36.2322 28.6017 33.175C28.6017 30.143 26.1257 27.6416 23.0683 27.6416C19.9605 27.6416 17.4844 30.143 17.4844 33.175Z" fill="#5755FE" style="fill:#5755FE;fill:color(display-p3 0.3412 0.3333 0.9961);fill-opacity:1;"/>
</g>
<defs>
<clipPath id="clip0_45_126">
<rect width="62.0039" height="64" fill="white" style="fill:white;fill-opacity:1;"/>
</clipPath>
</defs>
</svg>
