<svg width="62" height="64" viewBox="0 0 62 64" fill="none" xmlns="http://www.w3.org/2000/svg">
<g clip-path="url(#clip0_45_142)">
<path d="M46.4799 7.22622H14.5893C14.693 5.17274 15.9889 3.99211 18.1414 3.99211H42.9278C45.0802 3.99211 46.3762 5.17274 46.4799 7.22622Z" fill="#5755FE" style="fill:#5755FE;fill:color(display-p3 0.3412 0.3333 0.9961);fill-opacity:1;"/>
<path d="M51.6483 14.4436C50.8356 14.3144 49.9738 14.2503 49.0675 14.2503H12.0016C11.0956 14.2503 10.2339 14.3143 9.42151 14.4435C9.69662 12.0161 11.3392 10.6625 14.0229 10.6625H47.0716C49.7554 10.6625 51.3772 12.0161 51.6483 14.4436Z" fill="#5755FE" style="fill:#5755FE;fill:color(display-p3 0.3412 0.3333 0.9961);fill-opacity:1;"/>
<path d="M12.3553 59.2246H48.7645C53.5145 59.2246 56.0159 56.7991 56.0159 52.049V50.3057L43.4078 38.3799C42.3721 37.3944 41.058 36.9144 39.7442 36.9144C38.3799 36.9144 37.1923 37.3439 36.0806 38.3545L25.0644 48.0569L20.6933 44.1405C19.6574 43.2057 18.5709 42.7257 17.3834 42.7257C16.2969 42.7257 15.3115 43.231 14.2756 44.1154L5.10386 52.049C5.10386 56.7991 7.60522 59.2246 12.3553 59.2246ZM12.0016 59.9323H49.0675C54.3484 59.9323 57.0011 57.3043 57.0011 52.0995V26.1508C57.0011 20.9459 54.3484 18.3182 49.0675 18.3182H12.0016C6.72091 18.3182 4.06793 20.9459 4.06793 26.1508V52.0995C4.06793 57.3043 6.72091 59.9323 12.0016 59.9323ZM12.0774 55.8643C9.55076 55.8643 8.13583 54.5 8.13583 51.8721V26.3782C8.13583 23.7505 9.55076 22.3861 12.0774 22.3861H49.017C51.493 22.3861 52.9334 23.7505 52.9334 26.3782V51.8721C52.9334 54.5 51.493 55.8643 49.017 55.8643H12.0774Z" fill="#5755FE" style="fill:#5755FE;fill:color(display-p3 0.3412 0.3333 0.9961);fill-opacity:1;"/>
<path d="M23.1189 38.9863C26.3024 38.9863 28.8796 36.3333 28.8796 33.175C28.8796 30.0167 26.3024 27.4142 23.1189 27.4142C19.91 27.4142 17.3328 30.0167 17.3328 33.175C17.3328 36.3333 19.91 38.9863 23.1189 38.9863Z" fill="#5755FE" style="fill:#5755FE;fill:color(display-p3 0.3412 0.3333 0.9961);fill-opacity:1;"/>
</g>
<defs>
<clipPath id="clip0_45_142">
<rect width="62.0039" height="64" fill="white" style="fill:white;fill-opacity:1;"/>
</clipPath>
</defs>
</svg>
