<svg width="64" height="64" viewBox="0 0 64 64" fill="none" xmlns="http://www.w3.org/2000/svg">
<g id="square.and.arrow.up.circle.fill" clip-path="url(#clip0_2_69)">
<path id="Vector" d="M62.3793 32.8102C62.3793 49.8423 48.2523 64 31.1896 64C14.1576 64 0 49.8423 0 32.8102C0 15.7477 14.1271 1.62064 31.159 1.62064C48.2216 1.62064 62.3793 15.7477 62.3793 32.8102ZM22.2608 22.3525C18.8667 22.3525 17.032 24.1261 17.032 27.5202V43.0232C17.032 46.4174 18.8667 48.2216 22.2608 48.2216H40.1184C43.543 48.2216 45.3472 46.4481 45.3472 43.0232V27.5202C45.3472 24.0955 43.543 22.3525 40.1184 22.3525H35.1649V25.5632H40.0877C41.4639 25.5632 42.1671 26.236 42.1671 27.6425V42.9315C42.1671 44.3383 41.4639 45.0416 40.0877 45.0416H22.2914C20.9154 45.0416 20.2121 44.3687 20.2121 42.9315V27.6425C20.2121 26.236 20.9154 25.5632 22.2914 25.5632H27.2145V22.3525H22.2608ZM30.0582 12.7205L24.7988 17.827C24.4318 18.1634 24.3401 18.4997 24.3401 18.8972C24.3401 19.7228 24.9517 20.2732 25.7467 20.2732C26.2054 20.2732 26.6029 20.1203 26.8781 19.8146L28.2847 18.3774L29.6913 16.8485L29.6301 18.3774V34.3085C29.6301 35.1648 30.3334 35.8374 31.1896 35.8374C32.0459 35.8374 32.7798 35.1648 32.7798 34.3085V18.3774L32.6881 16.8485L34.0639 18.3774L35.5011 19.8451C35.7457 20.1203 36.1434 20.2732 36.6021 20.2732C37.4581 20.2732 38.0697 19.7228 38.0697 18.8972C38.0697 18.4691 37.9472 18.1328 37.5806 17.827L32.2904 12.7205C31.9234 12.3535 31.5565 12.2006 31.1896 12.2006C30.7921 12.2006 30.4252 12.3535 30.0582 12.7205Z" fill="#5755FE" style="fill:#5755FE;fill:color(display-p3 0.3412 0.3333 0.9961);fill-opacity:1;"/>
</g>
<defs>
<clipPath id="clip0_2_69">
<rect width="63.5106" height="64" fill="white" style="fill:white;fill-opacity:1;"/>
</clipPath>
</defs>
</svg>
